<svg>

    <g id="logo" fill="none" xmlns="http://www.w3.org/2000/svg">
        <g clip-path="url(#a)">
            <path fill-rule="evenodd" clip-rule="evenodd" d="m17.262 10.058-4.81 8.782c1.9 3.368 3.452 4.55 6.5 4.43 2.984-.118 6.42-4.178 4.485-7.652l-4.818-8.543c-.172.575-1.18 2.613-1.357 2.983Zm-7.119 10.596C4.88 27.36-2.717 19.96.977 14.198c0 0 3.933-6.892 5.462-9.577C7.625 2.54 8.954 1.23 10.681.81c2.107-.512 4.574.602 5.889 2.633.914 1.411 1.723 2.703.297 5.144-.17.29-6.39 11.644-6.724 12.068Zm.376-12.403c-1.439-.83-1.439-2.914 0-3.744 1.439-.83 3.247.213 3.247 1.872 0 1.66-1.808 2.702-3.247 1.872Z" fill="#5FD788"/>
        </g>
        <defs>
            <clipPath id="a">
                <path fill="#fff" d="M0 0h24v24H0z"/>
            </clipPath>
        </defs>
    </g>

    <g id="bag" viewBox="0 0 15 17" xmlns="http://www.w3.org/2000/svg">
        <path d="M14.0493 14.6919L13.4942 4.84063H10.7214V4.04532C10.7214 2.0617 9.07272 0.448059 7.04616 0.448059C5.0196 0.448059 3.37096 2.06178 3.37096 4.04532V4.84063H0.478081L0.000561102 14.7345L7.77038e-05 14.7516C-0.0038423 15.1076 0.140719 15.4571 0.396479 15.7099C0.652319 15.9631 1.00776 16.1084 1.37168 16.1084H12.6798C13.0548 16.1084 13.418 15.9555 13.676 15.6887C13.9339 15.4219 14.07 15.0586 14.0493 14.6919ZM4.32952 4.04532C4.32952 2.57912 5.54816 1.38627 7.04616 1.38627C8.54408 1.38627 9.7628 2.57912 9.7628 4.04532V4.84063H4.32944V4.04532H4.32952ZM12.9798 15.0437C12.9019 15.124 12.7926 15.1701 12.6797 15.1701H1.3716C1.262 15.1701 1.15504 15.1264 1.07784 15.05C1.00248 14.9756 0.959201 14.8733 0.958481 14.7684L1.39232 5.77884H3.3708V6.96692C3.3708 7.22602 3.58536 7.43602 3.85008 7.43602C4.1148 7.43602 4.32936 7.22602 4.32936 6.96692V5.77884H9.76272V6.96692C9.76272 7.22602 9.97728 7.43602 10.242 7.43602C10.5067 7.43602 10.7212 7.22602 10.7212 6.96692V5.77884H12.5869L13.0919 14.7436C13.0984 14.854 13.0574 14.9634 12.9798 15.0437Z"/>
    </g>

    <g id="oils" viewBox="0 0 47 46" xmlns="http://www.w3.org/2000/svg">
        <path fill-rule="evenodd" clip-rule="evenodd" d="M19.8923 37.9438C9.27809 32.6989 3.21918 23.6023 5.91735 12.6756C9.1514 -0.421198 15.4177 15.9857 23.9411 10.2798C32.4645 4.57397 46.6601 8.46934 43.6383 23.6431C40.8095 37.8476 30.5066 43.1888 19.8923 37.9438Z"/>
        <path d="M16.9489 23.2772H30.7104V30.7435H32.0865V18.7974C32.0856 18.0054 31.7953 17.2465 31.2796 16.6865C30.7635 16.1269 30.0641 15.8119 29.3342 15.8109H28.6462V14.3176H29.3342C29.5167 14.3176 29.6918 14.239 29.8208 14.099C29.9498 13.959 30.0223 13.769 30.0223 13.571V9.0912C30.0223 8.89321 29.9498 8.70321 29.8208 8.56322C29.6918 8.42323 29.5167 8.34456 29.3342 8.34456H26.5819V3.86478C26.5819 2.79782 26.0573 1.81184 25.2058 1.27828C24.3543 0.744969 23.305 0.744969 22.4535 1.27828C21.602 1.81192 21.0774 2.79791 21.0774 3.86478V8.34456H18.3251C17.9451 8.34456 17.637 8.67888 17.637 9.0912V13.571C17.637 13.769 17.7095 13.959 17.8385 14.099C17.9675 14.2389 18.1426 14.3176 18.3251 14.3176H19.0131V15.8109H18.3251C17.5952 15.8119 16.8957 16.1269 16.3797 16.6865C15.864 17.2465 15.5737 18.0055 15.5728 18.7974V37.4632H16.9489V23.2772ZM22.4535 3.86478C22.4535 3.33114 22.7158 2.83818 23.1416 2.57153C23.5673 2.30487 24.092 2.30487 24.5177 2.57153C24.9435 2.83818 25.2058 3.33115 25.2058 3.86478V8.34456H22.4535V3.86478ZM19.0131 9.83783H28.6462V12.8244H19.0131V9.83783ZM20.3893 14.3176H27.27V15.8109H20.3893V14.3176ZM18.3251 17.3041H29.3342C29.6992 17.3045 30.0487 17.4621 30.3067 17.7421C30.5648 18.0221 30.7101 18.4014 30.7104 18.7974V21.7839H16.9489V18.7974C16.9492 18.4014 17.0945 18.0221 17.3525 17.7421C17.6105 17.4621 17.9601 17.3045 18.3251 17.3041Z" fill="currentColor"/>
        <path d="M42.7849 36.6508C42.655 35.8715 42.2455 35.1802 41.6463 34.7282C41.0473 34.2766 40.3073 34.1009 39.5888 34.2402L35.5258 35.0335L35.0386 32.0944H35.0383C35.006 31.8994 34.9038 31.7264 34.7539 31.6134C34.604 31.5004 34.419 31.4564 34.2393 31.4914L30.176 32.2847C29.9966 32.3197 29.8369 32.431 29.7327 32.5937C29.6286 32.756 29.5884 32.957 29.6206 33.152L29.7423 33.8866L27.7106 34.2833H27.7109C27.3368 34.3563 27.0883 34.7446 27.1555 35.1502L27.4031 36.6435L9.20571 40.8799C8.52071 41.0392 7.95333 41.5569 7.69069 42.2618C7.42836 42.9668 7.50546 43.7668 7.89619 44.3977C8.28692 45.0286 8.94057 45.408 9.64122 45.4106C9.74536 45.4106 9.84949 45.4023 9.9527 45.386L28.3703 42.4741L28.6179 43.9681H28.6176C28.6501 44.1627 28.7524 44.3357 28.9023 44.4487C29.0522 44.5617 29.2371 44.6057 29.4168 44.5707L31.4485 44.174L31.5701 44.9087C31.6024 45.1037 31.7047 45.2767 31.8546 45.3897C32.0045 45.5026 32.1897 45.5466 32.3694 45.5113L36.4324 44.718C36.8066 44.645 37.0551 44.257 36.9878 43.8511L36.5006 40.9119L40.564 40.1186C41.2822 39.9783 41.9198 39.534 42.3364 38.8836C42.7529 38.2333 42.9145 37.4301 42.7852 36.6504L42.7849 36.6508ZM9.75422 43.9085C9.36195 43.9704 8.99488 43.6841 8.92483 43.2608C8.85449 42.8375 9.10637 42.4302 9.49403 42.3402L27.6474 38.1144L28.1266 41.0039L9.75422 43.9085ZM29.8507 42.9688L28.6325 35.6205L29.9868 35.3562L31.2051 42.7045L29.8507 42.9688ZM32.8033 43.9097L31.0976 33.6224L33.8069 33.0938L35.5123 43.3811L32.8033 43.9097ZM41.2065 38.0317C40.9991 38.3576 40.68 38.58 40.3205 38.649L36.2572 39.4423L35.77 36.5031L39.833 35.7098H39.8333C40.1924 35.6398 40.5626 35.7275 40.8621 35.9535C41.1616 36.1794 41.3665 36.5254 41.431 36.9154C41.4955 37.305 41.4147 37.7067 41.2064 38.0316L41.2065 38.0317Z" fill="currentColor"/>
        <path d="M23.8295 25.517C23.6255 25.517 23.432 25.6153 23.3015 25.785C22.8149 26.4173 20.3892 29.6624 20.3892 31.49C20.3892 32.8236 21.045 34.0562 22.1093 34.7229C23.1737 35.3899 24.4854 35.3899 25.5497 34.7229C26.6141 34.0563 27.2699 32.8236 27.2699 31.49C27.2699 29.6624 24.8444 26.4173 24.3576 25.785C24.227 25.6153 24.0335 25.517 23.8295 25.517H23.8295ZM25.8937 31.4901C25.8937 32.2904 25.5002 33.0297 24.8616 33.4299C24.223 33.8299 23.436 33.8299 22.7974 33.4299C22.1588 33.0296 21.7653 32.2904 21.7653 31.4901C21.7653 30.6888 22.8453 28.8548 23.8295 27.4606C24.8137 28.8548 25.8937 30.6887 25.8937 31.4901Z" fill="currentColor"/>
        <path d="M27.958 24.7704H29.3342V26.2636H27.958V24.7704Z" fill="currentColor"/>
    </g>

    <g id="cosmetics" viewBox="0 0 50 51" xmlns="http://www.w3.org/2000/svg">
        <path fill-rule="evenodd" clip-rule="evenodd" d="M17.2378 39.6053C8.23626 31.5582 4.55353 21.0699 9.76599 11.2733C16.0137 -0.468979 18.1531 17.1387 27.747 14.021C37.341 10.9034 50.1238 18.6528 43.5857 32.4608C37.4652 45.3868 26.2394 47.6525 17.2378 39.6053Z"/>
        <path d="M43.4432 25.6824H41.8297V23.9316H43.4432V22.1809H41.8297V19.5547C41.8297 19.3225 41.7447 19.0998 41.5934 18.9357C41.4422 18.7715 41.2369 18.6793 41.0229 18.6793H39.4095V16.0531C39.4084 14.8854 39.1001 13.7423 38.521 12.7582C37.9419 11.7742 37.1161 10.9895 36.1404 10.497L36.2186 10.2704H36.2189C37.2709 7.22602 37.2375 3.86522 36.1249 0.846269C36.0317 0.593426 35.8354 0.401931 35.5937 0.328458C35.3521 0.254988 35.0924 0.307746 34.8918 0.471102L32.9556 2.04681C31.5683 3.17581 30.0226 4.0547 28.3774 4.64997C26.7322 5.24554 25.0093 5.54881 23.2748 5.54842C21.1658 5.54803 19.1255 6.36323 17.5203 7.84744C15.9148 9.33171 14.8494 11.3881 14.5148 13.6477C13.4571 13.9662 12.5074 14.6111 11.7813 15.5045C11.0556 16.3978 10.5846 17.5007 10.4258 18.6793H8.75355C8.30805 18.6793 7.94682 19.0713 7.94682 19.5547V22.1808H6.33335V23.9316H7.94682V25.6824H6.33335C5.88784 25.6824 5.52661 26.0744 5.52661 26.5578V41.4394C5.52769 42.368 5.86803 43.2579 6.47275 43.9143C7.0778 44.5705 7.89786 44.9398 8.75355 44.941H41.023C41.8787 44.9398 42.6988 44.5705 43.3038 43.9143C43.9085 43.2578 44.2488 42.368 44.2499 41.4394V26.5578C44.2499 26.3257 44.1649 26.1029 44.0137 25.9388C43.8624 25.7746 43.6571 25.6824 43.4432 25.6824L43.4432 25.6824ZM16.0141 15.1777H26.5017V13.4269H16.1958C16.5617 11.6864 17.461 10.1321 18.7471 9.01908C20.0332 7.90568 21.6298 7.29921 23.2749 7.29921C25.1825 7.2996 27.078 6.96586 28.8878 6.31088C30.6976 5.65629 32.3978 4.68945 33.9238 3.4475L34.9725 2.594C35.5823 4.91804 35.4897 7.39304 34.7078 9.65575L34.5915 9.99223H34.5918C34.317 9.94807 34.0401 9.9254 33.7624 9.9254H29.7287V11.6762H33.7624C34.8317 11.6774 35.8571 12.1389 36.6134 12.9596C37.3697 13.7802 37.795 14.8928 37.7961 16.0531V18.6793H12.0617C12.249 17.6914 12.7442 16.8039 13.4641 16.1657C14.1844 15.5279 15.0848 15.1789 16.0143 15.1777L16.0141 15.1777ZM9.56026 23.9316H16.8209V22.1809H9.56026V20.4301H40.2162V22.1809H37.796V23.9316H40.2162V25.6824H9.56026V23.9316ZM42.6364 41.4394C42.6361 41.9037 42.4657 42.3484 42.1632 42.6767C41.8607 43.005 41.4508 43.1898 41.023 43.1902H8.75354C8.32568 43.1898 7.91583 43.005 7.61332 42.6767C7.31081 42.3484 7.14044 41.9037 7.14009 41.4394V27.4332H42.6365L42.6364 41.4394Z" fill="currentColor"/>
        <path d="M18.4343 22.1808H36.1825V23.9316H18.4343V22.1808Z" fill="currentColor"/>
        <path d="M24.8882 39.6887C25.9579 39.6887 26.9838 39.2276 27.7406 38.4069C28.4969 37.5859 28.9218 36.4725 28.9218 35.3118C28.9218 34.151 28.4969 33.0378 27.7406 32.2166C26.9839 31.3959 25.9579 30.9348 24.8882 30.9348C23.8185 30.9348 22.7925 31.396 22.0357 32.2166C21.2794 33.0377 20.8545 34.151 20.8545 35.3118C20.8556 36.4721 21.2809 37.5847 22.0372 38.4053C22.7935 39.226 23.8189 39.6875 24.8882 39.6887ZM24.8882 32.6856C25.53 32.6856 26.1458 32.9623 26.5996 33.4547C27.0533 33.9471 27.3083 34.6154 27.3083 35.3117C27.3083 36.008 27.0533 36.6764 26.5996 37.1687C26.1458 37.6611 25.5299 37.9378 24.8882 37.9378C24.2465 37.9378 23.6305 37.6612 23.1768 37.1687C22.7231 36.6763 22.468 36.008 22.468 35.3117C22.4687 34.6153 22.7241 33.9478 23.1779 33.4558C23.6313 32.9634 24.2464 32.6863 24.8882 32.6855L24.8882 32.6856Z" fill="currentColor"/>
    </g>

    <g id="diffusers" viewBox="0 0 50 53" xmlns="http://www.w3.org/2000/svg">
        <path fill-rule="evenodd" clip-rule="evenodd" d="M17.3982 41.3804C8.39666 33.3333 4.71393 22.845 9.92639 13.0484C16.1741 1.30612 18.3135 18.9138 27.9074 15.7961C37.5014 12.6785 50.2842 20.4279 43.7461 34.2359C37.6256 47.1619 26.3998 49.4276 17.3982 41.3804Z"/>
        <path d="M39.8053 26.9286H37.2552C36.9267 26.9286 36.6602 26.6393 36.6602 26.2829V23.0545C36.6602 21.9354 37.499 21.0252 38.5303 21.0252C39.5615 21.0252 40.4004 21.9355 40.4004 23.0545V26.2829C40.4004 26.6393 40.1338 26.9286 39.8053 26.9286H39.8053ZM37.8502 25.6372H39.2103V23.0545C39.2103 22.6477 38.9052 22.3166 38.5303 22.3166C38.1553 22.3166 37.8502 22.6477 37.8502 23.0545V25.6372Z" fill="currentColor"/>
        <path d="M24.9299 45.3766H24.9296L24.8391 45.3763C21.56 45.3513 18.4651 43.9456 16.1251 41.4185C13.7844 38.8914 12.4741 35.5402 12.435 31.9824C12.3831 27.2557 14.5474 22.9165 18.2248 20.3746C20.4538 18.8336 21.7848 16.2149 21.7848 13.3693C21.7848 13.0129 22.0513 12.7237 22.3798 12.7237H27.4802C27.8087 12.7237 28.0752 13.0129 28.0752 13.3693C28.0752 16.2208 29.3992 18.8349 31.6169 20.3618C33.6024 21.729 35.1875 23.665 36.2027 25.9624C36.2525 26.0567 36.281 26.1664 36.281 26.283C36.281 26.6253 36.0357 26.9053 35.7255 26.9273L35.7258 28.4045H36.5555C36.8351 28.4045 37.0774 28.616 37.1369 28.9125C37.1588 29.0216 37.1803 29.1306 37.1994 29.2403C37.231 29.4192 37.1918 29.604 37.0911 29.7496L34.8757 32.955V39.8061C34.8757 39.951 34.8308 40.092 34.7479 40.206C32.3604 43.4918 28.7817 45.3767 24.9303 45.3767L24.9299 45.3766ZM22.9547 14.0145C22.768 17.0509 21.2686 19.8012 18.8638 21.4632C15.5364 23.7633 13.5776 27.6898 13.6247 31.967C13.6975 38.6017 18.732 44.0377 24.8474 44.085L24.9294 44.0853C28.3463 44.0853 31.5256 42.4458 33.6853 39.579V32.7397C33.6853 32.6 33.7269 32.4639 33.8043 32.3523L35.6404 29.6957H35.1304C34.8019 29.6957 34.5354 29.4065 34.5354 29.0501V26.2829C34.5354 26.074 34.6265 25.8886 34.7682 25.7706C33.8532 24.0194 32.5556 22.5379 30.9788 21.4521C28.5834 19.803 27.09 17.0569 26.9042 14.0149L22.9547 14.0145Z" fill="currentColor"/>
        <path d="M40.4853 45.3767H36.5751C34.9815 45.3767 33.6848 43.9696 33.6848 42.2404V32.7394C33.6848 32.3829 33.9514 32.0937 34.2799 32.0937H42.7809C43.1093 32.0937 43.3759 32.3829 43.3759 32.7394V42.2404C43.3759 43.9696 42.0792 45.3767 40.4856 45.3767H40.4853ZM34.8749 33.3852V42.2403C34.8749 43.2575 35.6375 44.0851 36.575 44.0851H40.4852C41.4227 44.0851 42.1854 43.2576 42.1854 42.2403V33.3852H34.8749Z" fill="currentColor"/>
        <path d="M42.7806 33.3851H34.2796C34.0543 33.3851 33.8482 33.2471 33.7474 33.0283C33.6466 32.8096 33.6684 32.5477 33.8035 32.352L36.3537 28.6624C36.466 28.5 36.6424 28.4041 36.8297 28.4041H40.23C40.4173 28.4041 40.5937 28.4997 40.706 28.6624L43.2561 32.352C43.3912 32.5477 43.4131 32.8096 43.3123 33.0283C43.2115 33.2471 43.0054 33.3851 42.7801 33.3851H42.7806ZM35.4701 32.0938H41.5905L39.9329 29.6955H37.1277L35.4701 32.0938Z" fill="currentColor"/>
        <path d="M41.9309 29.6956H35.1304C34.8019 29.6956 34.5354 29.4063 34.5354 29.0499V26.2827C34.5354 25.9263 34.802 25.6371 35.1304 25.6371H41.9309C42.2594 25.6371 42.526 25.9263 42.526 26.2827V29.0499C42.526 29.4063 42.2594 29.6956 41.9309 29.6956ZM35.7255 28.4043H41.3359V26.9284H35.7255V28.4043Z" fill="currentColor"/>
        <path d="M46.1808 45.3766H7.9278C7.59931 45.3766 7.33276 45.0874 7.33276 44.7309C7.33276 44.3745 7.59932 44.0852 7.9278 44.0852H46.1808C46.5093 44.0852 46.7758 44.3745 46.7758 44.7309C46.7758 45.0874 46.5093 45.3766 46.1808 45.3766Z" fill="currentColor"/>
        <path d="M26.6295 14.0145H23.2292C22.9007 14.0145 22.6342 13.7252 22.6342 13.3688V10.5073C22.0826 10.983 21.3961 11.2472 20.6791 11.2472C19.8287 11.2472 19.0354 10.8849 18.4476 10.2399C18.2036 10.2965 17.9546 10.3249 17.7038 10.3249C15.735 10.3249 14.1335 8.58715 14.1335 6.45072C14.1335 4.31428 15.735 2.57658 17.7038 2.57658C18.5396 2.57658 19.3454 2.89942 19.9796 3.46766C20.7194 2.34365 21.921 1.65414 23.2292 1.65414C24.1433 1.65414 25.0097 1.98686 25.7081 2.58873C26.3462 1.46076 27.4969 0.731689 28.7546 0.731689C30.3609 0.731689 31.7198 1.87248 32.1679 3.46369C32.7378 2.90465 33.4888 2.5765 34.28 2.5765C36.0141 2.5765 37.4253 4.10733 37.4253 5.98941C37.4253 7.8715 36.0142 9.40233 34.28 9.40233C33.7178 9.40233 33.1795 9.24387 32.7068 8.9464C32.0237 10.3353 30.6715 11.2471 29.1797 11.2471C28.4878 11.2471 27.8156 11.0521 27.2245 10.692V13.3686C27.2245 13.7251 26.958 14.0143 26.6295 14.0143L26.6295 14.0145ZM23.8242 12.7231H26.0344V9.35173C26.0344 9.08324 26.1878 8.84275 26.4191 8.74788C26.6507 8.653 26.9121 8.7235 27.0758 8.92479C27.6086 9.58002 28.3755 9.95594 29.1796 9.95594C30.4289 9.95594 31.5388 9.04538 31.8786 7.74149C31.9366 7.51946 32.0993 7.34782 32.3055 7.29117C32.5119 7.23451 32.7302 7.30171 32.8784 7.46741C33.2497 7.88249 33.7476 8.11111 34.28 8.11111C35.3581 8.11111 36.2352 7.1594 36.2352 5.98961C36.2352 4.81981 35.3581 3.8681 34.28 3.8681C33.5274 3.8681 32.8331 4.34577 32.511 5.08538C32.4202 5.29391 32.2338 5.43391 32.0222 5.45302C31.8109 5.4718 31.6054 5.36737 31.4842 5.17795C31.422 5.08077 31.3537 4.98622 31.2805 4.89695C31.19 4.78593 31.1375 4.64428 31.1317 4.49636C31.0786 3.10949 30.0343 2.02335 28.7546 2.02335C27.7024 2.02335 26.7624 2.78861 26.4692 3.8846C26.4072 4.11685 26.2305 4.29178 26.012 4.33823C25.7931 4.38468 25.569 4.29441 25.4309 4.10499C24.8944 3.36839 24.092 2.94574 23.2292 2.94574C22.1047 2.94574 21.0922 3.6718 20.6496 4.79518C20.5658 5.00832 20.3828 5.15623 20.1706 5.18293C19.9583 5.20994 19.7492 5.11045 19.6229 4.92367C19.1754 4.26283 18.458 3.86814 17.7039 3.86814C16.3914 3.86814 15.3237 5.02672 15.3237 6.45087C15.3237 7.87502 16.3914 9.0336 17.7039 9.0336C17.9616 9.0336 18.2167 8.98847 18.4617 8.89919C18.703 8.81123 18.9696 8.89985 19.1241 9.11958C19.4978 9.65128 20.0647 9.95601 20.6791 9.95601C21.255 9.95601 21.7994 9.68159 22.1722 9.20326C22.3094 9.02734 22.5225 8.944 22.7314 8.98485C22.8984 9.01746 23.0657 9.0336 23.2293 9.0336C23.5578 9.0336 23.8243 9.32284 23.8243 9.67928L23.8242 12.7231Z" fill="currentColor"/>
        <path d="M24.9298 41.687C19.9144 41.687 15.8342 37.2594 15.8342 31.8174C15.8342 31.4609 16.1008 31.1717 16.4293 31.1717C16.7578 31.1717 17.0243 31.4609 17.0243 31.8174C17.0243 36.5473 20.5709 40.3958 24.93 40.3958C25.2585 40.3958 25.525 40.6851 25.525 41.0415C25.525 41.3979 25.2585 41.6872 24.93 41.6872L24.9298 41.687Z" fill="currentColor"/>
        <path d="M24.9297 30.6182C23.664 30.6182 22.6345 29.5011 22.6345 28.1277C22.6345 26.7543 23.664 25.6372 24.9297 25.6372C26.1953 25.6372 27.2248 26.7543 27.2248 28.1277C27.2248 29.5011 26.1953 30.6182 24.9297 30.6182ZM24.9297 26.9286C24.3204 26.9286 23.8246 27.4665 23.8246 28.1277C23.8246 28.7889 24.3203 29.3269 24.9297 29.3269C25.539 29.3269 26.0348 28.7889 26.0348 28.1277C26.0348 27.4665 25.539 26.9286 24.9297 26.9286Z" fill="currentColor"/>
        <path d="M28.7551 39.8418C27.255 39.8418 26.0349 38.5178 26.0349 36.8901C26.0349 35.2623 27.255 33.9384 28.7551 33.9384C30.2552 33.9384 31.4753 35.2623 31.4753 36.8901C31.4753 38.5178 30.2552 39.8418 28.7551 39.8418ZM28.7551 35.2297C27.9115 35.2297 27.225 35.9745 27.225 36.8901C27.225 37.8056 27.9114 38.5504 28.7551 38.5504C29.5988 38.5504 30.2853 37.8056 30.2853 36.8901C30.2853 35.9745 29.5988 35.2297 28.7551 35.2297Z" fill="currentColor"/>
        <path d="M42.7805 40.7644H36.8301C36.5017 40.7644 36.2351 40.4751 36.2351 40.1187C36.2351 39.7623 36.5017 39.473 36.8301 39.473H42.7805C43.109 39.473 43.3756 39.7623 43.3756 40.1187C43.3756 40.4751 43.109 40.7644 42.7805 40.7644Z" fill="currentColor"/>
    </g>

    <g id="aromatherapy" viewBox="0 0 50 53" xmlns="http://www.w3.org/2000/svg">
        <path fill-rule="evenodd" clip-rule="evenodd" d="M17.3565 41.2263C8.35491 33.1792 4.67218 22.6909 9.88465 12.8943C16.1324 1.15204 18.2717 18.7597 27.8657 15.642C37.4597 12.5244 50.2424 20.2738 43.7043 34.0818C37.5838 47.0078 26.358 49.2735 17.3565 41.2263Z"/>
        <path d="M37.4562 19.2648H17.864C17.3444 19.2648 16.8458 19.0408 16.4786 18.6422C16.1113 18.2436 15.9048 17.7026 15.9048 17.1389V12.887C15.9048 12.4956 16.1972 12.1783 16.5579 12.1783H38.7623C38.9355 12.1783 39.1017 12.253 39.2242 12.3858C39.3466 12.5187 39.4154 12.699 39.4154 12.887V17.1389C39.4154 17.7026 39.209 18.2436 38.8416 18.6422C38.4743 19.0407 37.9757 19.2648 37.4562 19.2648H37.4562ZM17.2109 13.5956V17.1388C17.2109 17.3267 17.2797 17.5071 17.4022 17.6399C17.5246 17.7728 17.6908 17.8475 17.864 17.8475H37.4562C37.6293 17.8475 37.7955 17.7728 37.918 17.6399C38.0404 17.5071 38.1092 17.3267 38.1092 17.1388V13.5956H17.2109Z" fill="currentColor"/>
        <path d="M37.4564 44.7762H17.8642C17.6313 44.7755 17.4164 44.6408 17.3001 44.4218C17.11 44.0675 12.6397 35.688 12.6397 29.8941C12.6353 28.1993 13.0592 26.5356 13.8651 25.0838C14.6712 23.632 15.8284 22.4475 17.2112 21.6595V18.5557H18.5173V22.0989C18.5173 22.3824 18.3617 22.6387 18.1217 22.7503C16.8744 23.391 15.8202 24.4021 15.0811 25.6666C14.3421 26.931 13.9485 28.3968 13.9458 29.8941C13.9458 34.674 17.4033 41.7144 18.2451 43.3585H37.076C37.9177 41.7143 41.3752 34.6692 41.3752 29.8941C41.3723 28.3961 40.9781 26.9297 40.2385 25.6653C39.4985 24.4008 38.4434 23.3897 37.1955 22.7494C36.9573 22.6367 36.8034 22.3811 36.8037 22.0989V18.5557H38.1098V21.6595C39.4926 22.4475 40.6498 23.632 41.456 25.0838C42.2618 26.5356 42.6858 28.1993 42.6814 29.8941C42.6814 35.6879 38.211 44.0671 38.021 44.4218C37.9046 44.6407 37.6898 44.7755 37.4568 44.7762L37.4564 44.7762Z" fill="currentColor"/>
        <path d="M35.4972 41.2329H19.8234C19.5488 41.2329 19.3036 41.0465 19.2094 40.7666C19.1051 40.4436 16.5581 32.8119 16.5581 29.186C16.5651 28.0135 16.9462 26.8797 17.6368 25.9778C18.3275 25.0759 19.285 24.4618 20.3459 24.2397C20.3888 24.2299 20.4325 24.2251 20.4765 24.2254H34.8441C34.8882 24.2251 34.9319 24.2299 34.9748 24.2397C36.0357 24.4618 36.9932 25.0758 37.6839 25.9778C38.3745 26.8798 38.7556 28.0136 38.7626 29.186C38.7626 32.8121 36.2156 40.4434 36.1113 40.7666C36.0171 41.0465 35.7719 41.2329 35.4973 41.2329H35.4972ZM20.2854 39.8156H35.0352C35.5886 38.0971 37.4563 32.0786 37.4563 29.1858C37.4501 28.3512 37.1805 27.5442 36.6918 26.8992C36.2035 26.2544 35.5262 25.8108 34.7728 25.6426H20.5493C19.798 25.8156 19.123 26.2604 18.635 26.9042C18.1472 27.548 17.8752 28.3525 17.8638 29.1858C17.8638 32.0786 19.7315 38.097 20.2849 39.8156H20.2854Z" fill="currentColor"/>
        <path d="M31.5786 41.2329H23.7417C23.3811 41.2329 23.0886 40.9156 23.0886 40.5243V36.2724C23.0886 35.881 23.3811 35.5637 23.7417 35.5637H31.5786C31.7518 35.5637 31.9179 35.6384 32.0404 35.7713C32.1628 35.9041 32.2316 36.0845 32.2316 36.2724V40.5243C32.2316 40.7122 32.1628 40.8925 32.0404 41.0254C31.9179 41.1583 31.7518 41.2329 31.5786 41.2329ZM24.3948 39.8156H30.9255V36.981H24.3948V39.8156Z" fill="currentColor"/>
        <path d="M27.6601 34.1464C26.9674 34.1464 26.3029 33.8478 25.8129 33.3163C25.3231 32.7845 25.0479 32.0635 25.0479 31.3118C25.0479 29.9363 26.819 27.7246 27.1741 27.2952C27.3012 27.1516 27.4767 27.0703 27.6601 27.0703C27.8435 27.0703 28.019 27.1516 28.1461 27.2952C28.5012 27.7245 30.2724 29.9362 30.2724 31.3118C30.2724 32.0635 29.9972 32.7845 29.5074 33.3163C29.0173 33.8478 28.3528 34.1464 27.6601 34.1464H27.6601ZM27.6601 28.8663C26.9671 29.806 26.354 30.8604 26.354 31.3118C26.354 31.8183 26.603 32.2862 27.0071 32.5393C27.4112 32.7924 27.9091 32.7924 28.3132 32.5393C28.7173 32.2862 28.9663 31.8183 28.9663 31.3118C28.9663 30.8724 28.3537 29.81 27.6601 28.8663Z" fill="currentColor"/>
        <path d="M27.0071 33.4377H28.3132V36.2723H27.0071V33.4377Z" fill="currentColor"/>
        <path d="M24.3947 8.63494H23.0886C23.0886 8.23664 22.9469 8.06802 22.6268 7.7188C22.0926 7.25059 21.7825 6.54544 21.7825 5.80034C21.7825 5.05525 22.0927 4.35016 22.6268 3.88188C22.9469 3.53262 23.0886 3.364 23.0886 2.96574C23.0886 2.56748 22.9469 2.39882 22.6268 2.04959C22.0991 1.576 21.79 0.874286 21.7825 0.131134H23.0886C23.0886 0.529436 23.2303 0.698055 23.5504 1.04728C24.0781 1.52088 24.3872 2.22259 24.3947 2.96574C24.3871 3.70887 24.0781 4.41058 23.5504 4.8842C23.2303 5.23346 23.0886 5.40208 23.0886 5.80034C23.0886 6.1986 23.2303 6.36726 23.5504 6.71649C24.0781 7.19008 24.3872 7.89179 24.3947 8.63494Z" fill="currentColor"/>
        <path d="M28.9663 8.63494H27.6601C27.6601 8.23664 27.5184 8.06802 27.1983 7.7188C26.6642 7.25059 26.354 6.54544 26.354 5.80034C26.354 5.05525 26.6642 4.35016 27.1983 3.88188C27.5184 3.53262 27.6601 3.364 27.6601 2.96574C27.6601 2.56748 27.5184 2.39882 27.1983 2.04959C26.6706 1.576 26.3615 0.874286 26.354 0.131134H27.6602C27.6602 0.529436 27.8018 0.698055 28.122 1.04728C28.6497 1.52088 28.9587 2.22259 28.9663 2.96574C28.9587 3.70887 28.6496 4.41058 28.122 4.8842C27.8018 5.23346 27.6602 5.40208 27.6602 5.80034C27.6602 6.1986 27.8018 6.36726 28.122 6.71649C28.6497 7.19008 28.9587 7.89179 28.9663 8.63494Z" fill="currentColor"/>
        <path d="M33.5378 8.63494H32.2316C32.2316 8.23664 32.09 8.06802 31.7698 7.7188C31.2357 7.25059 30.9255 6.54544 30.9255 5.80034C30.9255 5.05525 31.2357 4.35016 31.7698 3.88188C32.09 3.53262 32.2316 3.364 32.2316 2.96574C32.2316 2.56748 32.09 2.39882 31.7698 2.04959C31.2421 1.576 30.9331 0.874286 30.9255 0.131134H32.2317C32.2317 0.529436 32.3734 0.698055 32.6935 1.04728C33.2212 1.52088 33.5303 2.22259 33.5378 2.96574C33.5302 3.70887 33.2212 4.41058 32.6935 4.8842C32.3734 5.23346 32.2317 5.40208 32.2317 5.80034C32.2317 6.1986 32.3734 6.36726 32.6935 6.71649C33.2212 7.19008 33.5303 7.89179 33.5378 8.63494Z" fill="currentColor"/>
        <path d="M16.5581 15.0128H36.8034V16.4301H16.5581V15.0128Z" fill="currentColor"/>
    </g>

    <g id="add-cart" viewBox="0 0 45 50" fill="none" xmlns="http://www.w3.org/2000/svg">
        <path d="M9.81296 47.4389C10.8969 47.4389 11.7756 46.5602 11.7756 45.4763C11.7756 44.3924 10.8969 43.5137 9.81296 43.5137C8.72905 43.5137 7.85037 44.3924 7.85037 45.4763C7.85037 46.5602 8.72905 47.4389 9.81296 47.4389Z" fill="#1F2937"/>
        <path d="M23.5511 47.4389C24.635 47.4389 25.5137 46.5602 25.5137 45.4763C25.5137 44.3924 24.635 43.5137 23.5511 43.5137C22.4672 43.5137 21.5885 44.3924 21.5885 45.4763C21.5885 46.5602 22.4672 47.4389 23.5511 47.4389Z" fill="#1F2937"/>
        <path d="M27.4763 24.8691H5.71114L4.90648 20.7476C4.8606 20.5227 4.73728 20.3209 4.55798 20.1774C4.37868 20.034 4.15475 19.958 3.92518 19.9626H0V21.9252H3.12052L6.86907 40.7661C6.91495 40.9911 7.03827 41.1928 7.21757 41.3363C7.39687 41.4797 7.6208 41.5557 7.85037 41.5511H25.5137V39.5885H8.65503L7.85037 35.6633H25.5137C25.7405 35.6689 25.9623 35.5956 26.1412 35.4561C26.3201 35.3165 26.4451 35.1193 26.495 34.8979L28.4576 26.0663C28.4905 25.9207 28.4897 25.7695 28.4553 25.6242C28.421 25.479 28.354 25.3435 28.2593 25.228C28.1647 25.1126 28.045 25.0202 27.9093 24.958C27.7736 24.8958 27.6255 24.8654 27.4763 24.8691ZM24.7287 33.7007H7.47748L6.10366 26.8317H26.2497L24.7287 33.7007Z" fill="#1F2937"/>
        <path d="M35.0674 28.2529C35.7852 28.2529 36.2539 27.7109 36.2539 26.9932V21.8516H41.1025C41.8203 21.8516 42.3623 21.3828 42.3623 20.665C42.3623 19.9473 41.8203 19.4785 41.1025 19.4785H36.2539V14.3223C36.2539 13.6045 35.7852 13.0625 35.0674 13.0625C34.3496 13.0625 33.8809 13.6045 33.8809 14.3223V19.4785H29.0176C28.2998 19.4785 27.7578 19.9473 27.7578 20.665C27.7578 21.3828 28.2998 21.8516 29.0176 21.8516H33.8809V26.9932C33.8809 27.7109 34.3496 28.2529 35.0674 28.2529Z" fill="#1F2937"/>
    </g>

</svg>