<svg>

    <g id="logo" fill="none" xmlns="http://www.w3.org/2000/svg">
        <g clip-path="url(#a)">
            <path fill-rule="evenodd" clip-rule="evenodd" d="m17.262 10.058-4.81 8.782c1.9 3.368 3.452 4.55 6.5 4.43 2.984-.118 6.42-4.178 4.485-7.652l-4.818-8.543c-.172.575-1.18 2.613-1.357 2.983Zm-7.119 10.596C4.88 27.36-2.717 19.96.977 14.198c0 0 3.933-6.892 5.462-9.577C7.625 2.54 8.954 1.23 10.681.81c2.107-.512 4.574.602 5.889 2.633.914 1.411 1.723 2.703.297 5.144-.17.29-6.39 11.644-6.724 12.068Zm.376-12.403c-1.439-.83-1.439-2.914 0-3.744 1.439-.83 3.247.213 3.247 1.872 0 1.66-1.808 2.702-3.247 1.872Z" fill="#5FD788"/>
        </g>
        <defs>
            <clipPath id="a">
                <path fill="#fff" d="M0 0h24v24H0z"/>
            </clipPath>
        </defs>
    </g>

    <g id="bag" viewBox="0 0 15 17" fill="none" xmlns="http://www.w3.org/2000/svg">
        <path d="M14.0493 14.6919L13.4942 4.84063H10.7214V4.04532C10.7214 2.0617 9.07272 0.448059 7.04616 0.448059C5.0196 0.448059 3.37096 2.06178 3.37096 4.04532V4.84063H0.478081L0.000561102 14.7345L7.77038e-05 14.7516C-0.0038423 15.1076 0.140719 15.4571 0.396479 15.7099C0.652319 15.9631 1.00776 16.1084 1.37168 16.1084H12.6798C13.0548 16.1084 13.418 15.9555 13.676 15.6887C13.9339 15.4219 14.07 15.0586 14.0493 14.6919ZM4.32952 4.04532C4.32952 2.57912 5.54816 1.38627 7.04616 1.38627C8.54408 1.38627 9.7628 2.57912 9.7628 4.04532V4.84063H4.32944V4.04532H4.32952ZM12.9798 15.0437C12.9019 15.124 12.7926 15.1701 12.6797 15.1701H1.3716C1.262 15.1701 1.15504 15.1264 1.07784 15.05C1.00248 14.9756 0.959201 14.8733 0.958481 14.7684L1.39232 5.77884H3.3708V6.96692C3.3708 7.22602 3.58536 7.43602 3.85008 7.43602C4.1148 7.43602 4.32936 7.22602 4.32936 6.96692V5.77884H9.76272V6.96692C9.76272 7.22602 9.97728 7.43602 10.242 7.43602C10.5067 7.43602 10.7212 7.22602 10.7212 6.96692V5.77884H12.5869L13.0919 14.7436C13.0984 14.854 13.0574 14.9634 12.9798 15.0437Z" fill="black"/>
    </g>

    <g id="search" viewBox="0 0 16 17" fill="none" xmlns="http://www.w3.org/2000/svg">
        <path d="M12.4439 12.0126L15.8698 15.3658C16.0434 15.5357 16.0434 15.8111 15.8698 15.981C15.6963 16.1509 15.4149 16.1509 15.2413 15.981L11.8154 12.6278C10.5617 13.7111 8.91485 14.3684 7.11111 14.3684C3.18375 14.3684 0 11.2522 0 7.40822C0 3.56423 3.18375 0.448059 7.11111 0.448059C11.0385 0.448059 14.2222 3.56423 14.2222 7.40822C14.2222 9.17367 13.5507 10.7856 12.4439 12.0126ZM7.11111 13.4984C10.5475 13.4984 13.3333 10.7717 13.3333 7.40822C13.3333 4.04473 10.5475 1.31808 7.11111 1.31808C3.67467 1.31808 0.888889 4.04473 0.888889 7.40822C0.888889 10.7717 3.67467 13.4984 7.11111 13.4984Z" fill="black"/>
    </g>

</svg>